<svg xmlns="http://www.w3.org/2000/svg" xmlns:xlink="http://www.w3.org/1999/xlink" width="400" zoomAndPan="magnify" viewBox="0 0 300 77.999999" height="104" preserveAspectRatio="xMidYMid meet" version="1.0"><defs><g/></defs><g fill="#d9d9d9" fill-opacity="1"><g transform="translate(193.180408, 61.292935)"><g><path d="M 10.640625 0 L 5.484375 0 L 5.484375 -48.421875 L 10.640625 -48.421875 Z M 10.640625 0 "/></g></g></g><g fill="#d9d9d9" fill-opacity="1"><g transform="translate(209.296998, 61.292935)"><g><path d="M 10.640625 0 L 5.484375 0 L 5.484375 -34.109375 L 10.640625 -34.109375 Z M 5.046875 -43.34375 C 5.046875 -44.53125 5.332031 -45.398438 5.90625 -45.953125 C 6.488281 -46.503906 7.21875 -46.78125 8.09375 -46.78125 C 8.925781 -46.78125 9.640625 -46.5 10.234375 -45.9375 C 10.835938 -45.375 11.140625 -44.507812 11.140625 -43.34375 C 11.140625 -42.1875 10.835938 -41.320312 10.234375 -40.75 C 9.640625 -40.175781 8.925781 -39.890625 8.09375 -39.890625 C 7.21875 -39.890625 6.488281 -40.175781 5.90625 -40.75 C 5.332031 -41.320312 5.046875 -42.1875 5.046875 -43.34375 Z M 5.046875 -43.34375 "/></g></g></g><g fill="#d9d9d9" fill-opacity="1"><g transform="translate(225.413589, 61.292935)"><g><path d="M 20.84375 -30.09375 L 12.171875 -30.09375 L 12.171875 0 L 7 0 L 7 -30.09375 L 0.90625 -30.09375 L 0.90625 -32.421875 L 7 -34.296875 L 7 -36.1875 C 7 -44.570312 10.660156 -48.765625 17.984375 -48.765625 C 19.785156 -48.765625 21.90625 -48.398438 24.34375 -47.671875 L 23 -43.53125 C 21.007812 -44.175781 19.304688 -44.5 17.890625 -44.5 C 15.941406 -44.5 14.5 -43.847656 13.5625 -42.546875 C 12.632812 -41.253906 12.171875 -39.175781 12.171875 -36.3125 L 12.171875 -34.109375 L 20.84375 -34.109375 Z M 20.84375 -30.09375 "/></g></g></g><g fill="#d9d9d9" fill-opacity="1"><g transform="translate(247.006087, 61.292935)"><g><path d="M 0.0625 -34.109375 L 5.609375 -34.109375 L 13.078125 -14.65625 C 14.710938 -10.21875 15.726562 -7.015625 16.125 -5.046875 L 16.375 -5.046875 C 16.644531 -6.097656 17.207031 -7.90625 18.0625 -10.46875 C 18.925781 -13.03125 21.742188 -20.910156 26.515625 -34.109375 L 32.046875 -34.109375 L 17.390625 4.734375 C 15.941406 8.566406 14.242188 11.285156 12.296875 12.890625 C 10.359375 14.503906 7.984375 15.3125 5.171875 15.3125 C 3.585938 15.3125 2.03125 15.132812 0.5 14.78125 L 0.5 10.640625 C 1.632812 10.890625 2.910156 11.015625 4.328125 11.015625 C 7.867188 11.015625 10.398438 9.023438 11.921875 5.046875 L 13.8125 0.1875 Z M 0.0625 -34.109375 "/></g></g></g><g fill="#d9d9d9" fill-opacity="1"><g transform="translate(279.114815, 61.292935)"><g><path d="M 4.734375 -3.296875 C 4.734375 -4.691406 5.046875 -5.742188 5.671875 -6.453125 C 6.304688 -7.171875 7.21875 -7.53125 8.40625 -7.53125 C 9.601562 -7.53125 10.539062 -7.171875 11.21875 -6.453125 C 11.894531 -5.742188 12.234375 -4.691406 12.234375 -3.296875 C 12.234375 -1.953125 11.890625 -0.914062 11.203125 -0.1875 C 10.515625 0.539062 9.582031 0.90625 8.40625 0.90625 C 7.34375 0.90625 6.460938 0.578125 5.765625 -0.078125 C 5.078125 -0.734375 4.734375 -1.804688 4.734375 -3.296875 Z M 4.734375 -3.296875 "/></g></g></g><g fill="#ffffff" fill-opacity="1"><g transform="translate(3.944775, 61.292935)"><g><path d="M 24.34375 -35.453125 C 28.257812 -35.453125 31.425781 -33.925781 33.84375 -30.875 C 36.257812 -27.820312 37.46875 -23.347656 37.46875 -17.453125 C 37.46875 -13.515625 36.894531 -10.203125 35.75 -7.515625 C 34.613281 -4.828125 33.039062 -2.796875 31.03125 -1.421875 C 29.019531 -0.0546875 26.707031 0.625 24.09375 0.625 C 22.40625 0.625 20.957031 0.410156 19.75 -0.015625 C 18.550781 -0.441406 17.523438 -0.988281 16.671875 -1.65625 C 15.828125 -2.332031 15.09375 -3.054688 14.46875 -3.828125 L 13.96875 -3.828125 C 14.132812 -2.992188 14.257812 -2.140625 14.34375 -1.265625 C 14.425781 -0.398438 14.46875 0.445312 14.46875 1.28125 L 14.46875 15.3125 L 4.984375 15.3125 L 4.984375 -34.796875 L 12.703125 -34.796875 L 14.03125 -30.28125 L 14.46875 -30.28125 C 15.09375 -31.21875 15.847656 -32.078125 16.734375 -32.859375 C 17.628906 -33.648438 18.703125 -34.28125 19.953125 -34.75 C 21.210938 -35.21875 22.675781 -35.453125 24.34375 -35.453125 Z M 21.28125 -27.859375 C 19.625 -27.859375 18.304688 -27.515625 17.328125 -26.828125 C 16.359375 -26.140625 15.648438 -25.109375 15.203125 -23.734375 C 14.753906 -22.367188 14.507812 -20.640625 14.46875 -18.546875 L 14.46875 -17.515625 C 14.46875 -15.273438 14.679688 -13.375 15.109375 -11.8125 C 15.535156 -10.257812 16.25 -9.078125 17.25 -8.265625 C 18.257812 -7.460938 19.644531 -7.0625 21.40625 -7.0625 C 22.863281 -7.0625 24.054688 -7.460938 24.984375 -8.265625 C 25.921875 -9.078125 26.625 -10.265625 27.09375 -11.828125 C 27.5625 -13.398438 27.796875 -15.316406 27.796875 -17.578125 C 27.796875 -20.984375 27.265625 -23.546875 26.203125 -25.265625 C 25.140625 -26.992188 23.5 -27.859375 21.28125 -27.859375 Z M 21.28125 -27.859375 "/></g></g></g><g fill="#ffffff" fill-opacity="1"><g transform="translate(44.267365, 61.292935)"><g><path d="M 36.90625 -34.796875 L 36.90625 0 L 29.625 0 L 28.34375 -4.453125 L 27.859375 -4.453125 C 27.109375 -3.265625 26.171875 -2.296875 25.046875 -1.546875 C 23.929688 -0.804688 22.695312 -0.257812 21.34375 0.09375 C 20 0.445312 18.597656 0.625 17.140625 0.625 C 14.648438 0.625 12.484375 0.1875 10.640625 -0.6875 C 8.796875 -1.570312 7.359375 -2.945312 6.328125 -4.8125 C 5.304688 -6.6875 4.796875 -9.117188 4.796875 -12.109375 L 4.796875 -34.796875 L 14.28125 -34.796875 L 14.28125 -14.46875 C 14.28125 -11.976562 14.722656 -10.097656 15.609375 -8.828125 C 16.503906 -7.566406 17.929688 -6.9375 19.890625 -6.9375 C 21.816406 -6.9375 23.328125 -7.375 24.421875 -8.25 C 25.523438 -9.132812 26.300781 -10.429688 26.75 -12.140625 C 27.195312 -13.859375 27.421875 -15.953125 27.421875 -18.421875 L 27.421875 -34.796875 Z M 36.90625 -34.796875 "/></g></g></g><g fill="#ffffff" fill-opacity="1"><g transform="translate(86.145611, 61.292935)"><g><path d="M 45.84375 -35.453125 C 49.78125 -35.453125 52.757812 -34.4375 54.78125 -32.40625 C 56.8125 -30.382812 57.828125 -27.144531 57.828125 -22.6875 L 57.828125 0 L 48.296875 0 L 48.296875 -20.328125 C 48.296875 -22.816406 47.867188 -24.691406 47.015625 -25.953125 C 46.171875 -27.222656 44.859375 -27.859375 43.078125 -27.859375 C 40.566406 -27.859375 38.78125 -26.957031 37.71875 -25.15625 C 36.65625 -23.363281 36.125 -20.796875 36.125 -17.453125 L 36.125 0 L 26.640625 0 L 26.640625 -20.328125 C 26.640625 -21.984375 26.453125 -23.367188 26.078125 -24.484375 C 25.703125 -25.609375 25.128906 -26.453125 24.359375 -27.015625 C 23.597656 -27.578125 22.613281 -27.859375 21.40625 -27.859375 C 19.644531 -27.859375 18.257812 -27.414062 17.25 -26.53125 C 16.25 -25.644531 15.535156 -24.347656 15.109375 -22.640625 C 14.679688 -20.929688 14.46875 -18.84375 14.46875 -16.375 L 14.46875 0 L 4.984375 0 L 4.984375 -34.796875 L 12.234375 -34.796875 L 13.5 -30.34375 L 14.03125 -30.34375 C 14.738281 -31.539062 15.625 -32.515625 16.6875 -33.265625 C 17.757812 -34.015625 18.9375 -34.566406 20.21875 -34.921875 C 21.507812 -35.273438 22.820312 -35.453125 24.15625 -35.453125 C 26.707031 -35.453125 28.867188 -35.035156 30.640625 -34.203125 C 32.410156 -33.367188 33.773438 -32.082031 34.734375 -30.34375 L 35.578125 -30.34375 C 36.609375 -32.125 38.070312 -33.421875 39.96875 -34.234375 C 41.875 -35.046875 43.832031 -35.453125 45.84375 -35.453125 Z M 45.84375 -35.453125 "/></g></g></g><g fill="#ffffff" fill-opacity="1"><g transform="translate(148.714074, 61.292935)"><g><path d="M 24.34375 -35.453125 C 28.257812 -35.453125 31.425781 -33.925781 33.84375 -30.875 C 36.257812 -27.820312 37.46875 -23.347656 37.46875 -17.453125 C 37.46875 -13.515625 36.894531 -10.203125 35.75 -7.515625 C 34.613281 -4.828125 33.039062 -2.796875 31.03125 -1.421875 C 29.019531 -0.0546875 26.707031 0.625 24.09375 0.625 C 22.40625 0.625 20.957031 0.410156 19.75 -0.015625 C 18.550781 -0.441406 17.523438 -0.988281 16.671875 -1.65625 C 15.828125 -2.332031 15.09375 -3.054688 14.46875 -3.828125 L 13.96875 -3.828125 C 14.132812 -2.992188 14.257812 -2.140625 14.34375 -1.265625 C 14.425781 -0.398438 14.46875 0.445312 14.46875 1.28125 L 14.46875 15.3125 L 4.984375 15.3125 L 4.984375 -34.796875 L 12.703125 -34.796875 L 14.03125 -30.28125 L 14.46875 -30.28125 C 15.09375 -31.21875 15.847656 -32.078125 16.734375 -32.859375 C 17.628906 -33.648438 18.703125 -34.28125 19.953125 -34.75 C 21.210938 -35.21875 22.675781 -35.453125 24.34375 -35.453125 Z M 21.28125 -27.859375 C 19.625 -27.859375 18.304688 -27.515625 17.328125 -26.828125 C 16.359375 -26.140625 15.648438 -25.109375 15.203125 -23.734375 C 14.753906 -22.367188 14.507812 -20.640625 14.46875 -18.546875 L 14.46875 -17.515625 C 14.46875 -15.273438 14.679688 -13.375 15.109375 -11.8125 C 15.535156 -10.257812 16.25 -9.078125 17.25 -8.265625 C 18.257812 -7.460938 19.644531 -7.0625 21.40625 -7.0625 C 22.863281 -7.0625 24.054688 -7.460938 24.984375 -8.265625 C 25.921875 -9.078125 26.625 -10.265625 27.09375 -11.828125 C 27.5625 -13.398438 27.796875 -15.316406 27.796875 -17.578125 C 27.796875 -20.984375 27.265625 -23.546875 26.203125 -25.265625 C 25.140625 -26.992188 23.5 -27.859375 21.28125 -27.859375 Z M 21.28125 -27.859375 "/></g></g></g></svg>